# xmcd
#
# Track frame offsets:
#	150
#	21116
#	38324
#
# Disc length: 782 seconds
#
# Revision: 2
# Processed by: cddbd v1.5.1PL2 Copyright (c) Steve Scherf et al.
# Submitted via: CDmax 2.0
#
DISCID=13030c03
DTITLE=PEARL - ???????????
DYEAR=1998
DGENRE=Blues
TTITLE0=???????????
TTITLE1=Sweet Life
TTITLE2=???????????(?????????)
EXTD=YEAR: 1998
EXTT0=
EXTT1=
EXTT2=
PLAYORDER=
